PathFileType	4	(X/Y/Z)	C:\Users\dbl\Desktop\LZH\BX\Trimmed_Trimmed_bx_y_10_901.trc
DataRate	CameraRate	NumFrames	NumMarkers	Units	OrigDataRate	OrigDataStartFrame	OrigNumFrames
50.00	50.00	       5	43	mm	50.00	186	       247
Frame#	Time	Top.Head			R.Acromium			L.Acromium			Sternum			R.ASIS			L.ASIS			V.Sacral			R.Thigh.Upper			R.Thigh.Front			R.Thigh.Rear			R.Knee.Lat			R.Knee.Med			R.Shank.Upper			R.Shank.Front			R.Shank.Rear			R.Ankle.Lat			R.Midfoot.Lat			R.Toe.Lat			R.Toe.Tip			R.Toe.Med			R.Ankle.Med			R.Midfoot.Sup			R.Heel			L.Thigh.Upper			L.Thigh.Front			L.Thigh.Rear			L.Knee.Lat			L.Knee.Med			L.Shank.Upper			L.Shank.Front			L.Shank.Rear			L.Ankle.Lat			L.Midfoot.Lat			L.Toe.Lat			L.Toe.Tip			L.Toe.Med			L.Ankle.Med			L.Midfoot.Sup			L.Heel			origin1 front left			origin2 front right			origin 3 back right			origin 4 back leftt			
		X1	Y1	Z1	X2	Y2	Z2	X3	Y3	Z3	X4	Y4	Z4	X5	Y5	Z5	X6	Y6	Z6	X7	Y7	Z7	X8	Y8	Z8	X9	Y9	Z9	X10	Y10	Z10	X11	Y11	Z11	X12	Y12	Z12	X13	Y13	Z13	X14	Y14	Z14	X15	Y15	Z15	X16	Y16	Z16	X17	Y17	Z17	X18	Y18	Z18	X19	Y19	Z19	X20	Y20	Z20	X21	Y21	Z21	X22	Y22	Z22	X23	Y23	Z23	X24	Y24	Z24	X25	Y25	Z25	X26	Y26	Z26	X27	Y27	Z27	X28	Y28	Z28	X29	Y29	Z29	X30	Y30	Z30	X31	Y31	Z31	X32	Y32	Z32	X33	Y33	Z33	X34	Y34	Z34	X35	Y35	Z35	X36	Y36	Z36	X37	Y37	Z37	X38	Y38	Z38	X39	Y39	Z39	X40	Y40	Z40	X41	Y41	Z41	X42	Y42	Z42	X43	Y43	Z43	

186	3.700	-110.12445	247.74519	1164.29041	-265.27975	81.04996	1016.35620	-303.08710	412.66202	968.44159	-358.33044	259.59064	1120.57690	-730.62524	154.30153	980.20471	-351.88245	412.33881	1041.98376	-878.91180	251.54327	1097.98730	-796.37061	95.97279	862.77893	-739.83264	154.30359	819.57446	-827.53516	90.29633	716.61475	-788.54199	124.05395	585.81580	-757.33972	227.37990	547.69507	-802.05011	122.92818	516.91223	-722.82599	172.89096	542.29907	-816.56122	123.60907	442.04077	-696.32001	138.87987	210.98816	-614.44305	78.70956	166.46284	-570.92169	50.04284	159.54176	-495.00763	95.76295	161.27399	-533.37500	145.06660	164.66573	-647.09259	213.02689	228.17497	-594.83026	187.08472	174.62125	-719.51428	208.50023	171.25797	-781.01978	439.65298	854.85504	-729.37354	374.94385	812.57251	-808.00891	447.60272	720.82013	-798.65625	419.21906	599.16290	-751.77905	313.66629	560.45013	-787.60962	415.22040	541.15668	-727.84857	373.24295	534.94647	-820.94177	420.41788	475.92770	-686.94684	417.22461	212.73122	-584.31598	466.17615	165.30745	-545.90619	478.69034	158.56754	-488.86533	425.70154	166.37723	-525.03241	386.28897	175.64627	-647.87170	330.92249	214.67268	-594.41040	349.10599	173.45580	-728.13324	341.85336	166.16061	-443.73322	448.45288	146.15640	-450.76288	75.35963	144.54774	-806.32513	82.72494	142.49835	-799.07941	457.43610	145.29669	
187	3.720	-111.49097	247.62560	1166.76965	-266.24716	80.32857	1021.61194	-304.60962	413.45209	971.61670	-359.62238	259.64276	1121.07861	-730.30884	153.82883	980.84595	-361.13586	411.71906	1041.65369	-879.92151	250.66177	1097.68799	-796.71082	95.37847	862.55670	-740.15845	153.73891	819.54095	-827.91815	89.50024	716.55505	-788.88184	123.59141	585.66217	-757.48596	226.84143	547.63770	-802.24481	122.54795	516.69806	-723.12909	172.45340	542.14484	-816.72498	123.13479	441.80103	-696.27588	138.82266	210.89709	-614.41901	78.77200	166.53281	-570.96198	49.84746	159.85271	-495.16510	95.77921	161.12663	-533.36517	145.06334	164.68288	-647.12811	212.99911	228.16005	-594.81122	187.09337	174.60451	-719.60321	208.38553	171.03204	-781.90912	439.22430	854.96136	-730.01337	374.58704	812.54901	-808.67047	447.35333	720.92816	-799.21942	419.02005	599.17773	-752.15845	313.55591	560.31372	-788.06152	415.08243	541.07483	-728.40088	373.07785	534.99286	-821.42029	420.30334	475.92368	-686.96234	417.35492	212.56206	-584.40137	466.49402	164.89592	-545.88031	478.74399	158.15796	-489.05505	425.41132	166.16722	-525.19434	386.42502	175.82239	-648.19513	330.46085	214.63695	-594.60138	349.28204	173.52231	-728.23035	341.85336	166.12691	-443.76279	448.48428	146.21254	-450.77182	75.34576	144.54793	-806.37518	82.71960	142.52127	-799.09174	457.47852	145.26765	
188	3.740	-112.51471	247.60930	1169.58118	-267.34048	79.59132	1027.10315	-306.09775	414.16696	975.39471	-360.98193	259.69095	1121.70361	-729.94501	153.36719	981.51917	-370.49875	411.08609	1041.32788	-880.99664	249.76717	1097.31519	-796.91260	94.80042	862.22870	-740.42737	153.20985	819.39850	-828.17395	88.68965	716.45996	-789.22046	123.14763	585.44092	-757.64032	226.29976	547.54327	-802.48816	122.16079	516.40472	-723.41248	171.99249	541.89703	-816.91406	122.70547	441.46429	-696.23041	138.78212	210.76546	-614.45087	78.78989	166.64043	-571.00244	49.69490	160.11029	-495.26758	95.80194	161.04594	-533.34760	145.05771	164.68776	-647.15790	212.98238	228.13986	-594.82184	187.05463	174.62602	-719.60114	208.27872	170.82826	-782.72882	438.64926	854.93420	-730.53058	374.29404	812.49390	-809.27924	447.06403	720.96320	-799.63428	418.77621	599.09296	-752.57336	313.40839	560.06635	-788.44312	415.00070	540.95093	-728.86639	372.87961	534.88959	-821.79163	420.22897	475.81561	-687.07166	417.46643	212.29597	-584.43524	466.82742	164.40582	-545.88104	478.78146	157.76088	-489.17825	425.22385	166.06633	-525.50934	386.46310	176.13918	-648.52472	329.99716	214.57289	-594.86188	349.50107	173.44235	-728.36627	341.87543	165.96094	-443.78580	448.52646	146.26514	-450.79053	75.33694	144.54478	-806.33716	82.64558	142.61223	-799.12170	457.50064	145.24828	
189	3.760	-113.29913	247.71417	1172.90454	-268.56424	78.83987	1032.82813	-307.61438	414.74274	979.71484	-362.40939	259.73502	1122.45361	-729.53339	152.91766	982.22412	-379.95529	410.44104	1041.00769	-882.11395	248.94411	1096.89075	-797.02173	94.28726	861.92706	-740.67004	152.66597	819.22351	-828.20050	88.12633	716.23938	-789.49933	122.71271	585.19611	-757.79736	225.75885	547.41608	-802.78589	121.78726	516.07562	-723.67426	171.48088	541.68036	-817.12775	122.31350	441.13376	-696.17499	138.73270	210.59833	-614.52179	78.67564	166.81621	-571.02185	49.62796	160.22618	-495.29312	95.81755	161.03915	-533.32227	145.04514	164.68425	-647.20978	212.94905	228.12183	-594.90265	186.88545	174.78877	-719.53790	208.18823	170.69557	-783.43286	438.01538	854.79224	-730.96118	374.00607	812.40533	-809.79907	446.65762	720.86810	-799.97180	418.44592	598.87360	-752.94836	313.14151	559.80054	-788.75372	414.88138	540.78619	-729.20313	372.64938	534.69574	-822.03094	420.10135	475.58862	-687.29779	417.55801	212.01961	-584.41876	467.08963	163.93596	-545.91852	478.85721	157.46587	-489.26852	425.12729	166.08582	-525.85303	386.43750	176.47403	-648.85626	329.61438	214.44937	-595.10748	349.71573	173.24928	-728.48181	341.94958	165.59938	-443.78021	448.54465	146.28612	-450.80414	75.33687	144.54301	-806.25641	82.56725	142.70229	-799.15344	457.48758	145.24367	
190	3.780	-114.02960	247.93550	1176.92151	-269.92303	78.07587	1038.78528	-309.17838	415.18634	984.47180	-363.90512	259.77478	1123.33020	-729.07367	152.48131	982.96063	-389.48962	409.78510	1040.69397	-883.24316	248.23793	1096.46765	-797.08655	93.77451	861.79871	-740.89899	152.05118	819.13562	-828.05469	87.84244	715.93896	-789.70020	122.23628	584.99078	-757.95148	225.22247	547.26050	-803.11023	121.39059	515.80505	-723.92285	170.93295	541.59778	-817.36884	121.91262	440.86572	-696.11829	138.61316	210.44273	-614.62024	78.37060	167.03209	-571.03149	49.60928	160.22211	-495.26260	95.82366	161.04034	-533.30804	145.02780	164.67516	-647.32520	212.86292	228.11694	-595.01135	186.60883	175.12915	-719.48907	208.10616	170.64140	-783.99860	437.40182	854.58655	-731.35803	373.57898	812.28571	-810.19598	446.18945	720.69128	-800.28589	418.06021	598.56140	-753.18909	312.64471	559.66888	-789.03363	414.67737	540.57208	-729.45001	372.38919	534.47931	-822.18237	419.89359	475.32928	-687.60168	417.64651	211.75052	-584.37939	467.26871	163.55492	-545.97430	479.00833	157.30710	-489.37570	425.05969	166.14912	-526.08221	386.44354	176.64119	-649.19550	329.41092	214.23749	-595.24536	349.93066	172.99083	-728.54663	342.13763	165.06541	-443.75772	448.52948	146.26881	-450.79871	75.34187	144.53700	-806.21930	82.55165	142.70576	-799.17230	457.46277	145.23903	
